<?xml version="1.0" encoding="utf-8"?>
<!-- Generator: Adobe Illustrator 23.1.0, SVG Export Plug-In . SVG Version: 6.00 Build 0)  -->
<svg version="1.1" id="图层_1" xmlns="http://www.w3.org/2000/svg" xmlns:xlink="http://www.w3.org/1999/xlink" x="0px" y="0px"
	 viewBox="0 0 595.28 629.62" width="36" height="36" style="enable-background:new 0 0 595.28 629.62;" xml:space="preserve">
<style type="text/css">
	.st0{fill:url(#SVGID_1_);}
	.st1{fill:url(#SVGID_2_);}
	.st2{fill:url(#SVGID_3_);}
	.st3{fill:url(#SVGID_4_);}
	.st4{fill:url(#SVGID_5_);}
	.st5{fill:url(#SVGID_6_);}
	.st6{fill:url(#SVGID_7_);}
	.st7{fill:url(#SVGID_8_);}
	.st8{fill:url(#SVGID_9_);}
	.st9{fill:url(#SVGID_10_);}
	.st10{fill:url(#SVGID_11_);}
	.st11{fill:url(#SVGID_12_);}
	.st12{fill:url(#SVGID_13_);}
	.st13{fill:url(#SVGID_14_);}
	.st14{fill:url(#SVGID_15_);}
</style>
<linearGradient id="SVGID_1_" gradientUnits="userSpaceOnUse" x1="248.172" y1="298.3248" x2="321.1933" y2="298.3248">
	<stop  offset="0" style="stop-color:#4C3E8E"/>
	<stop  offset="0.2581" style="stop-color:#573F8E"/>
	<stop  offset="0.6075" style="stop-color:#88408D"/>
	<stop  offset="1" style="stop-color:#DA4D75"/>
</linearGradient>
<path class="st0" d="M307.7,322.75h-46.04c-7.45,0-13.49-6.04-13.49-13.49v-21.86c0-7.45,6.04-13.49,13.49-13.49h46.04
	c7.45,0,13.49,6.04,13.49,13.49v21.86C321.19,316.71,315.15,322.75,307.7,322.75z"/>
<linearGradient id="SVGID_2_" gradientUnits="userSpaceOnUse" x1="248.172" y1="298.3248" x2="321.1933" y2="298.3248">
	<stop  offset="0" style="stop-color:#4C3E8E"/>
	<stop  offset="0.2581" style="stop-color:#573F8E"/>
	<stop  offset="0.6075" style="stop-color:#88408D"/>
	<stop  offset="1" style="stop-color:#DA4D75"/>
</linearGradient>
<path class="st1" d="M307.7,322.75h-46.04c-7.45,0-13.49-6.04-13.49-13.49v-21.86c0-7.45,6.04-13.49,13.49-13.49h46.04
	c7.45,0,13.49,6.04,13.49,13.49v21.86C321.19,316.71,315.15,322.75,307.7,322.75z"/>
<g>
	<linearGradient id="SVGID_3_" gradientUnits="userSpaceOnUse" x1="179.491" y1="299.9109" x2="389.8743" y2="299.9109">
		<stop  offset="0" style="stop-color:#4C3E8E"/>
		<stop  offset="0.2581" style="stop-color:#573F8E"/>
		<stop  offset="0.6075" style="stop-color:#88408D"/>
		<stop  offset="1" style="stop-color:#DA4D75"/>
	</linearGradient>
	<path class="st2" d="M309.46,357.77c-2.7-3.39-6.8-5.37-11.13-5.37h-47.76c-0.51,0-1.02-0.01-1.53-0.04
		c-15.64-0.74-27.74-14.07-27.74-29.73v-43.28c0-15.72,12.2-29.07,27.91-29.73c0.45-0.02,0.91-0.03,1.36-0.03h66.48
		c10.12,0,19.13,4.71,24.99,12.04c2.25,2.82,5.61,4.53,9.22,4.53h31.06c4.17,0,7.55-3.38,7.55-7.55l0,0v-2.83h-0.1
		c-1.47-22.81-20.46-40.97-43.63-40.97H223.28c-24.08,0-43.79,19.71-43.79,43.79v0.92v1.11V288v44.31v5.85v3.18v3.71h0.17
		c1.9,22.39,20.75,39.96,43.62,39.96h104.79c1.23,0,1.92-1.42,1.15-2.39L309.46,357.77z"/>
	<linearGradient id="SVGID_4_" gradientUnits="userSpaceOnUse" x1="347.0629" y1="346.5878" x2="389.8743" y2="346.5878">
		<stop  offset="0" style="stop-color:#4C3E8E"/>
		<stop  offset="0.2581" style="stop-color:#573F8E"/>
		<stop  offset="0.6075" style="stop-color:#88408D"/>
		<stop  offset="1" style="stop-color:#DA4D75"/>
	</linearGradient>
	<path class="st3" d="M389.71,330.5c-0.12-3.58-3.06-6.42-6.64-6.42h-33.17c-3.28,0-3.6,5.62-1.53,8.17l29.16,36.14
		c0.76,0.94,2.19,0.93,2.94-0.02c5.89-7.45,9.42-16.86,9.42-27.09v-5.85L389.71,330.5z"/>
</g>
<linearGradient id="SVGID_5_" gradientUnits="userSpaceOnUse" x1="140.1408" y1="327.9831" x2="185.4377" y2="291.3488" gradientTransform="matrix(0.6842 -0.5649 0.6366 0.7712 33.8864 214.8456)">
	<stop  offset="0" style="stop-color:#4C3E8E"/>
	<stop  offset="0.2581" style="stop-color:#573F8E"/>
	<stop  offset="0.6075" style="stop-color:#88408D"/>
	<stop  offset="1" style="stop-color:#DA4D75"/>
</linearGradient>
<path class="st4" d="M383.62,385.19l-1.53,1.27c-13.48,11.13-33.44,9.22-44.57-4.26l-36.31-43.98l1.53-1.27
	c13.48-11.13,33.44-9.22,44.57,4.26L383.62,385.19z"/>
<g>
	<linearGradient id="SVGID_6_" gradientUnits="userSpaceOnUse" x1="117.3177" y1="425.1621" x2="411.1821" y2="483.0998">
		<stop  offset="0" style="stop-color:#4C3E8E"/>
		<stop  offset="0.2581" style="stop-color:#573F8E"/>
		<stop  offset="0.6075" style="stop-color:#88408D"/>
		<stop  offset="1" style="stop-color:#DA4D75"/>
	</linearGradient>
	<path class="st5" d="M154.03,430.49h-13.55v5.72c0,1.2,0.11,1.97,0.34,2.31c0.22,0.35,0.66,0.52,1.3,0.52
		c0.79,0,1.33-0.23,1.59-0.69c0.27-0.46,0.4-1.35,0.4-2.66v-3.49h9.92v1.95c0,1.63-0.13,2.89-0.4,3.77
		c-0.27,0.88-0.89,1.81-1.88,2.81c-0.98,1-2.23,1.74-3.74,2.24c-1.51,0.5-3.41,0.75-5.69,0.75c-2.21,0-4.16-0.25-5.86-0.74
		c-1.69-0.49-3.01-1.17-3.95-2.02c-0.94-0.86-1.59-1.8-1.96-2.83c-0.36-1.03-0.54-2.53-0.54-4.49v-7.71c0-2.31,0.41-4.14,1.22-5.47
		c0.81-1.34,2.14-2.36,3.99-3.07c1.85-0.71,3.97-1.07,6.37-1.07c2.94,0,5.36,0.43,7.27,1.29c1.91,0.86,3.25,1.99,4.02,3.41
		c0.77,1.41,1.15,3.4,1.15,5.97V430.49z M143.54,426.18v-1.93c0-1.37-0.1-2.25-0.29-2.65c-0.19-0.4-0.58-0.6-1.17-0.6
		c-0.73,0-1.17,0.17-1.35,0.51c-0.17,0.34-0.26,1.25-0.26,2.74v1.93H143.54z"/>
	<linearGradient id="SVGID_7_" gradientUnits="userSpaceOnUse" x1="118.2259" y1="418.7542" x2="412.8619" y2="476.8441">
		<stop  offset="0" style="stop-color:#4C3E8E"/>
		<stop  offset="0.2581" style="stop-color:#573F8E"/>
		<stop  offset="0.6075" style="stop-color:#88408D"/>
		<stop  offset="1" style="stop-color:#DA4D75"/>
	</linearGradient>
	<path class="st6" d="M174.77,427.04h-9.82v-1.77c0-2.04,0.31-3.62,0.92-4.73c0.61-1.11,1.84-2.09,3.69-2.94
		c1.85-0.85,4.25-1.28,7.2-1.28c3.54,0,6.21,0.48,8.01,1.45c1.8,0.96,2.88,2.15,3.24,3.55c0.36,1.4,0.54,4.29,0.54,8.66v13.27
		h-10.18v-2.36c-0.64,0.94-1.46,1.65-2.47,2.13c-1.01,0.47-2.22,0.71-3.61,0.71c-1.83,0-3.51-0.4-5.04-1.19
		c-1.53-0.79-2.29-2.52-2.29-5.19v-2.17c0-1.98,0.41-3.33,1.22-4.05c0.81-0.72,2.82-1.55,6.04-2.51c3.44-1.04,5.28-1.73,5.52-2.09
		c0.24-0.36,0.36-1.09,0.36-2.19c0-1.38-0.13-2.28-0.4-2.7c-0.27-0.42-0.71-0.63-1.33-0.63c-0.71,0-1.15,0.18-1.32,0.53
		c-0.17,0.35-0.26,1.27-0.26,2.74V427.04z M178.08,430.67c-1.68,0.94-2.65,1.73-2.92,2.37c-0.27,0.64-0.4,1.55-0.4,2.75
		c0,1.37,0.12,2.25,0.35,2.65c0.23,0.4,0.7,0.6,1.39,0.6c0.66,0,1.08-0.16,1.28-0.47c0.2-0.31,0.3-1.13,0.3-2.46V430.67z"/>
	<linearGradient id="SVGID_8_" gradientUnits="userSpaceOnUse" x1="119.358" y1="411.9921" x2="413.5665" y2="469.9977">
		<stop  offset="0" style="stop-color:#4C3E8E"/>
		<stop  offset="0.2581" style="stop-color:#573F8E"/>
		<stop  offset="0.6075" style="stop-color:#88408D"/>
		<stop  offset="1" style="stop-color:#DA4D75"/>
	</linearGradient>
	<path class="st7" d="M221.49,425.25h-9.28v-1.43c0-1.22-0.09-2-0.27-2.32c-0.18-0.33-0.63-0.49-1.36-0.49
		c-0.59,0-1.03,0.15-1.32,0.45c-0.29,0.3-0.44,0.75-0.44,1.35c0,0.81,0.07,1.4,0.22,1.78c0.15,0.38,0.59,0.79,1.32,1.25
		c0.73,0.45,2.24,1.11,4.52,1.97c3.04,1.14,5.03,2.22,5.98,3.23c0.95,1.01,1.42,2.48,1.42,4.4c0,2.15-0.36,3.78-1.09,4.87
		c-0.73,1.1-1.94,1.94-3.64,2.53c-1.7,0.59-3.75,0.89-6.15,0.89c-2.66,0-4.94-0.32-6.83-0.96c-1.89-0.64-3.19-1.5-3.9-2.59
		c-0.71-1.09-1.06-2.74-1.06-4.94v-1.28h9.28v1.67c0,1.42,0.12,2.34,0.35,2.77c0.23,0.43,0.69,0.64,1.39,0.64
		c0.74,0,1.26-0.14,1.55-0.43c0.29-0.29,0.44-0.89,0.44-1.8c0-1.26-0.19-2.05-0.57-2.37c-0.4-0.32-2.43-1.26-6.09-2.83
		c-3.07-1.33-4.95-2.53-5.62-3.62c-0.67-1.08-1.01-2.37-1.01-3.86c0-2.11,0.36-3.67,1.09-4.67c0.73-1,1.96-1.78,3.69-2.32
		c1.74-0.54,3.75-0.82,6.05-0.82c2.28,0,4.22,0.22,5.82,0.67c1.6,0.44,2.82,1.03,3.68,1.76c0.85,0.73,1.37,1.41,1.55,2.03
		c0.18,0.63,0.27,1.6,0.27,2.93V425.25z"/>
	<linearGradient id="SVGID_9_" gradientUnits="userSpaceOnUse" x1="119.6034" y1="407.3089" x2="414.8245" y2="465.5142">
		<stop  offset="0" style="stop-color:#4C3E8E"/>
		<stop  offset="0.2581" style="stop-color:#573F8E"/>
		<stop  offset="0.6075" style="stop-color:#88408D"/>
		<stop  offset="1" style="stop-color:#DA4D75"/>
	</linearGradient>
	<path class="st8" d="M254.96,416.8l-2.99,19.13c-0.47,3.03-0.87,5.09-1.19,6.2c-0.32,1.1-0.85,2.01-1.59,2.73
		c-0.74,0.72-1.77,1.25-3.1,1.58c-1.32,0.34-3.43,0.51-6.33,0.51h-6.35v-4.23c1.63,0,2.67-0.06,3.14-0.19
		c0.47-0.13,0.7-0.41,0.7-0.85c0-0.21-0.22-1.14-0.65-2.77l-5.73-22.12h9.5l3.44,17.86l1.68-17.86H254.96z"/>
	<linearGradient id="SVGID_10_" gradientUnits="userSpaceOnUse" x1="121.6264" y1="400.62" x2="414.9261" y2="458.4464">
		<stop  offset="0" style="stop-color:#4C3E8E"/>
		<stop  offset="0.2581" style="stop-color:#573F8E"/>
		<stop  offset="0.6075" style="stop-color:#88408D"/>
		<stop  offset="1" style="stop-color:#DA4D75"/>
	</linearGradient>
	<path class="st9" d="M277.62,427.24v5.56h-13.76v-5.56H277.62z"/>
	<linearGradient id="SVGID_11_" gradientUnits="userSpaceOnUse" x1="121.376" y1="395.3287" x2="416.5808" y2="453.5307">
		<stop  offset="0" style="stop-color:#4C3E8E"/>
		<stop  offset="0.2581" style="stop-color:#573F8E"/>
		<stop  offset="0.6075" style="stop-color:#88408D"/>
		<stop  offset="1" style="stop-color:#DA4D75"/>
	</linearGradient>
	<path class="st10" d="M312.11,416.8v30.21h-10.47v-5.9c-1.02,1.14-1.96,1.87-2.81,2.17c-0.85,0.3-1.91,0.45-3.17,0.45
		c-1.83,0-3.35-0.33-4.55-1c-1.2-0.66-2.01-1.52-2.42-2.58c-0.41-1.06-0.62-2.67-0.62-4.85v-11.66c0-1.79,0.16-3.13,0.47-4.02
		c0.31-0.88,1.06-1.65,2.24-2.31c1.18-0.66,2.59-0.99,4.21-0.99c1.31,0,2.52,0.23,3.63,0.68c1.1,0.45,2.12,1.14,3.03,2.06l0.18-2.26
		H312.11z M301.64,423.99c0-1.17-0.12-1.96-0.35-2.37c-0.23-0.41-0.65-0.62-1.26-0.62c-0.59,0-0.99,0.18-1.19,0.54
		c-0.21,0.36-0.31,1.18-0.31,2.45v11.78c0,1.42,0.1,2.32,0.31,2.7c0.21,0.38,0.63,0.57,1.27,0.57c0.6,0,1.01-0.2,1.22-0.59
		c0.21-0.39,0.31-1.25,0.31-2.56V423.99z"/>
	<linearGradient id="SVGID_12_" gradientUnits="userSpaceOnUse" x1="122.4951" y1="387.632" x2="417.6601" y2="445.8262">
		<stop  offset="0" style="stop-color:#4C3E8E"/>
		<stop  offset="0.2581" style="stop-color:#573F8E"/>
		<stop  offset="0.6075" style="stop-color:#88408D"/>
		<stop  offset="1" style="stop-color:#DA4D75"/>
	</linearGradient>
	<path class="st11" d="M347.79,416.8v26.44h-10.65l0.18-2.2c-0.73,0.89-1.62,1.56-2.68,2.01c-1.06,0.45-2.29,0.67-3.67,0.67
		c-1.57,0-2.88-0.21-3.91-0.64c-1.04-0.43-1.8-0.99-2.29-1.69c-0.49-0.7-0.8-1.44-0.92-2.2c-0.12-0.76-0.18-2.28-0.18-4.55V416.8
		h10.47v17.99c0,2.06,0.08,3.28,0.25,3.67c0.16,0.39,0.61,0.58,1.33,0.58c0.78,0,1.24-0.2,1.39-0.6c0.15-0.4,0.22-1.68,0.22-3.85
		V416.8H347.79z"/>
	<linearGradient id="SVGID_13_" gradientUnits="userSpaceOnUse" x1="124.4758" y1="381.3893" x2="418.3406" y2="439.3271">
		<stop  offset="0" style="stop-color:#4C3E8E"/>
		<stop  offset="0.2581" style="stop-color:#573F8E"/>
		<stop  offset="0.6075" style="stop-color:#88408D"/>
		<stop  offset="1" style="stop-color:#DA4D75"/>
	</linearGradient>
	<path class="st12" d="M383.21,430.49h-13.55v5.72c0,1.2,0.11,1.97,0.34,2.31c0.22,0.35,0.66,0.52,1.3,0.52
		c0.79,0,1.33-0.23,1.59-0.69c0.27-0.46,0.4-1.35,0.4-2.66v-3.49h9.92v1.95c0,1.63-0.13,2.89-0.4,3.77
		c-0.27,0.88-0.89,1.81-1.88,2.81c-0.98,1-2.23,1.74-3.74,2.24c-1.51,0.5-3.41,0.75-5.69,0.75c-2.21,0-4.16-0.25-5.85-0.74
		c-1.69-0.49-3.01-1.17-3.95-2.02c-0.94-0.86-1.59-1.8-1.96-2.83c-0.36-1.03-0.54-2.53-0.54-4.49v-7.71c0-2.31,0.41-4.14,1.22-5.47
		c0.81-1.34,2.14-2.36,3.99-3.07c1.85-0.71,3.97-1.07,6.37-1.07c2.94,0,5.36,0.43,7.27,1.29c1.91,0.86,3.25,1.99,4.02,3.41
		c0.77,1.41,1.15,3.4,1.15,5.97V430.49z M372.72,426.18v-1.93c0-1.37-0.1-2.25-0.28-2.65c-0.19-0.4-0.58-0.6-1.17-0.6
		c-0.73,0-1.17,0.17-1.35,0.51c-0.17,0.34-0.26,1.25-0.26,2.74v1.93H372.72z"/>
	<linearGradient id="SVGID_14_" gradientUnits="userSpaceOnUse" x1="125.6039" y1="375.1036" x2="419.2751" y2="433.0032">
		<stop  offset="0" style="stop-color:#4C3E8E"/>
		<stop  offset="0.2581" style="stop-color:#573F8E"/>
		<stop  offset="0.6075" style="stop-color:#88408D"/>
		<stop  offset="1" style="stop-color:#DA4D75"/>
	</linearGradient>
	<path class="st13" d="M405.06,416.8l-0.41,3.48c1.52-2.49,3.72-3.81,6.61-3.96v9.31c-1.92,0-3.32,0.2-4.22,0.6
		c-0.9,0.4-1.45,0.95-1.66,1.66c-0.21,0.71-0.31,2.35-0.31,4.91v10.44h-10.47V416.8H405.06z"/>
	<linearGradient id="SVGID_15_" gradientUnits="userSpaceOnUse" x1="124.6746" y1="370.9568" x2="419.8947" y2="429.1618">
		<stop  offset="0" style="stop-color:#4C3E8E"/>
		<stop  offset="0.2581" style="stop-color:#573F8E"/>
		<stop  offset="0.6075" style="stop-color:#88408D"/>
		<stop  offset="1" style="stop-color:#DA4D75"/>
	</linearGradient>
	<path class="st14" d="M444.41,416.8l-2.99,19.13c-0.47,3.03-0.87,5.09-1.19,6.2c-0.32,1.1-0.85,2.01-1.59,2.73
		c-0.74,0.72-1.77,1.25-3.1,1.58c-1.32,0.34-3.43,0.51-6.33,0.51h-6.35v-4.23c1.63,0,2.67-0.06,3.14-0.19
		c0.47-0.13,0.7-0.41,0.7-0.85c0-0.21-0.22-1.14-0.65-2.77l-5.73-22.12h9.5l3.44,17.86l1.68-17.86H444.41z"/>
</g>
</svg>
