<svg xmlns="http://www.w3.org/2000/svg" xml:space="preserve" width="40" height="40" style="enable-background:new 0 0 595.28 629.62" viewBox="0 0 595.28 629.62"><linearGradient id="a" x1="248.172" x2="321.193" y1="298.325" y2="298.325" gradientUnits="userSpaceOnUse"><stop offset="0" style="stop-color:#4c3e8e"/><stop offset=".258" style="stop-color:#573f8e"/><stop offset=".608" style="stop-color:#88408d"/><stop offset="1" style="stop-color:#da4d75"/></linearGradient><path d="M307.7 322.75h-46.04c-7.45 0-13.49-6.04-13.49-13.49V287.4c0-7.45 6.04-13.49 13.49-13.49h46.04c7.45 0 13.49 6.04 13.49 13.49v21.86c0 7.45-6.04 13.49-13.49 13.49z" style="fill:url(#a)"/><linearGradient id="b" x1="248.172" x2="321.193" y1="298.325" y2="298.325" gradientUnits="userSpaceOnUse"><stop offset="0" style="stop-color:#4c3e8e"/><stop offset=".258" style="stop-color:#573f8e"/><stop offset=".608" style="stop-color:#88408d"/><stop offset="1" style="stop-color:#da4d75"/></linearGradient><path d="M307.7 322.75h-46.04c-7.45 0-13.49-6.04-13.49-13.49V287.4c0-7.45 6.04-13.49 13.49-13.49h46.04c7.45 0 13.49 6.04 13.49 13.49v21.86c0 7.45-6.04 13.49-13.49 13.49z" style="fill:url(#b)"/><linearGradient id="c" x1="179.491" x2="389.874" y1="299.911" y2="299.911" gradientUnits="userSpaceOnUse"><stop offset="0" style="stop-color:#4c3e8e"/><stop offset=".258" style="stop-color:#573f8e"/><stop offset=".608" style="stop-color:#88408d"/><stop offset="1" style="stop-color:#da4d75"/></linearGradient><path d="M309.46 357.77c-2.7-3.39-6.8-5.37-11.13-5.37h-47.76c-.51 0-1.02-.01-1.53-.04-15.64-.74-27.74-14.07-27.74-29.73v-43.28c0-15.72 12.2-29.07 27.91-29.73.45-.02.91-.03 1.36-.03h66.48c10.12 0 19.13 4.71 24.99 12.04 2.25 2.82 5.61 4.53 9.22 4.53h31.06a7.55 7.55 0 0 0 7.55-7.55v-2.83h-.1c-1.47-22.81-20.46-40.97-43.63-40.97H223.28c-24.08 0-43.79 19.71-43.79 43.79v86.45h.17c1.9 22.39 20.75 39.96 43.62 39.96h104.79c1.23 0 1.92-1.42 1.15-2.39l-19.76-24.85z" style="fill:url(#c)"/><linearGradient id="d" x1="347.063" x2="389.874" y1="346.588" y2="346.588" gradientUnits="userSpaceOnUse"><stop offset="0" style="stop-color:#4c3e8e"/><stop offset=".258" style="stop-color:#573f8e"/><stop offset=".608" style="stop-color:#88408d"/><stop offset="1" style="stop-color:#da4d75"/></linearGradient><path d="M389.71 330.5a6.645 6.645 0 0 0-6.64-6.42H349.9c-3.28 0-3.6 5.62-1.53 8.17l29.16 36.14c.76.94 2.19.93 2.94-.02 5.89-7.45 9.42-16.86 9.42-27.09v-5.85l-.18-4.93z" style="fill:url(#d)"/><linearGradient id="e" x1="140.141" x2="185.438" y1="327.983" y2="291.349" gradientTransform="matrix(.6842 -.5649 .6366 .7712 33.886 214.846)" gradientUnits="userSpaceOnUse"><stop offset="0" style="stop-color:#4c3e8e"/><stop offset=".258" style="stop-color:#573f8e"/><stop offset=".608" style="stop-color:#88408d"/><stop offset="1" style="stop-color:#da4d75"/></linearGradient><path d="m383.62 385.19-1.53 1.27c-13.48 11.13-33.44 9.22-44.57-4.26l-36.31-43.98 1.53-1.27c13.48-11.13 33.44-9.22 44.57 4.26l36.31 43.98z" style="fill:url(#e)"/><linearGradient id="f" x1="117.318" x2="411.182" y1="425.162" y2="483.1" gradientUnits="userSpaceOnUse"><stop offset="0" style="stop-color:#4c3e8e"/><stop offset=".258" style="stop-color:#573f8e"/><stop offset=".608" style="stop-color:#88408d"/><stop offset="1" style="stop-color:#da4d75"/></linearGradient><path d="M154.03 430.49h-13.55v5.72c0 1.2.11 1.97.34 2.31.22.35.66.52 1.3.52.79 0 1.33-.23 1.59-.69.27-.46.4-1.35.4-2.66v-3.49h9.92v1.95c0 1.63-.13 2.89-.4 3.77-.27.88-.89 1.81-1.88 2.81-.98 1-2.23 1.74-3.74 2.24-1.51.5-3.41.75-5.69.75-2.21 0-4.16-.25-5.86-.74-1.69-.49-3.01-1.17-3.95-2.02-.94-.86-1.59-1.8-1.96-2.83-.36-1.03-.54-2.53-.54-4.49v-7.71c0-2.31.41-4.14 1.22-5.47.81-1.34 2.14-2.36 3.99-3.07s3.97-1.07 6.37-1.07c2.94 0 5.36.43 7.27 1.29 1.91.86 3.25 1.99 4.02 3.41.77 1.41 1.15 3.4 1.15 5.97v3.5zm-10.49-4.31v-1.93c0-1.37-.1-2.25-.29-2.65-.19-.4-.58-.6-1.17-.6-.73 0-1.17.17-1.35.51-.17.34-.26 1.25-.26 2.74v1.93h3.07z" style="fill:url(#f)"/><linearGradient id="g" x1="118.226" x2="412.862" y1="418.754" y2="476.844" gradientUnits="userSpaceOnUse"><stop offset="0" style="stop-color:#4c3e8e"/><stop offset=".258" style="stop-color:#573f8e"/><stop offset=".608" style="stop-color:#88408d"/><stop offset="1" style="stop-color:#da4d75"/></linearGradient><path d="M174.77 427.04h-9.82v-1.77c0-2.04.31-3.62.92-4.73.61-1.11 1.84-2.09 3.69-2.94 1.85-.85 4.25-1.28 7.2-1.28 3.54 0 6.21.48 8.01 1.45 1.8.96 2.88 2.15 3.24 3.55.36 1.4.54 4.29.54 8.66v13.27h-10.18v-2.36a6.12 6.12 0 0 1-2.47 2.13c-1.01.47-2.22.71-3.61.71-1.83 0-3.51-.4-5.04-1.19-1.53-.79-2.29-2.52-2.29-5.19v-2.17c0-1.98.41-3.33 1.22-4.05.81-.72 2.82-1.55 6.04-2.51 3.44-1.04 5.28-1.73 5.52-2.09.24-.36.36-1.09.36-2.19 0-1.38-.13-2.28-.4-2.7-.27-.42-.71-.63-1.33-.63-.71 0-1.15.18-1.32.53-.17.35-.26 1.27-.26 2.74v2.76zm3.31 3.63c-1.68.94-2.65 1.73-2.92 2.37-.27.64-.4 1.55-.4 2.75 0 1.37.12 2.25.35 2.65.23.4.7.6 1.39.6.66 0 1.08-.16 1.28-.47.2-.31.3-1.13.3-2.46v-5.44z" style="fill:url(#g)"/><linearGradient id="h" x1="119.358" x2="413.567" y1="411.992" y2="469.998" gradientUnits="userSpaceOnUse"><stop offset="0" style="stop-color:#4c3e8e"/><stop offset=".258" style="stop-color:#573f8e"/><stop offset=".608" style="stop-color:#88408d"/><stop offset="1" style="stop-color:#da4d75"/></linearGradient><path d="M221.49 425.25h-9.28v-1.43c0-1.22-.09-2-.27-2.32-.18-.33-.63-.49-1.36-.49-.59 0-1.03.15-1.32.45-.29.3-.44.75-.44 1.35 0 .81.07 1.4.22 1.78.15.38.59.79 1.32 1.25.73.45 2.24 1.11 4.52 1.97 3.04 1.14 5.03 2.22 5.98 3.23.95 1.01 1.42 2.48 1.42 4.4 0 2.15-.36 3.78-1.09 4.87-.73 1.1-1.94 1.94-3.64 2.53-1.7.59-3.75.89-6.15.89-2.66 0-4.94-.32-6.83-.96-1.89-.64-3.19-1.5-3.9-2.59-.71-1.09-1.06-2.74-1.06-4.94v-1.28h9.28v1.67c0 1.42.12 2.34.35 2.77.23.43.69.64 1.39.64.74 0 1.26-.14 1.55-.43.29-.29.44-.89.44-1.8 0-1.26-.19-2.05-.57-2.37-.4-.32-2.43-1.26-6.09-2.83-3.07-1.33-4.95-2.53-5.62-3.62-.67-1.08-1.01-2.37-1.01-3.86 0-2.11.36-3.67 1.09-4.67.73-1 1.96-1.78 3.69-2.32 1.74-.54 3.75-.82 6.05-.82 2.28 0 4.22.22 5.82.67 1.6.44 2.82 1.03 3.68 1.76.85.73 1.37 1.41 1.55 2.03.18.63.27 1.6.27 2.93v1.54z" style="fill:url(#h)"/><linearGradient id="i" x1="119.603" x2="414.825" y1="407.309" y2="465.514" gradientUnits="userSpaceOnUse"><stop offset="0" style="stop-color:#4c3e8e"/><stop offset=".258" style="stop-color:#573f8e"/><stop offset=".608" style="stop-color:#88408d"/><stop offset="1" style="stop-color:#da4d75"/></linearGradient><path d="m254.96 416.8-2.99 19.13c-.47 3.03-.87 5.09-1.19 6.2-.32 1.1-.85 2.01-1.59 2.73-.74.72-1.77 1.25-3.1 1.58-1.32.34-3.43.51-6.33.51h-6.35v-4.23c1.63 0 2.67-.06 3.14-.19.47-.13.7-.41.7-.85 0-.21-.22-1.14-.65-2.77l-5.73-22.12h9.5l3.44 17.86 1.68-17.86h9.47z" style="fill:url(#i)"/><linearGradient id="j" x1="121.626" x2="414.926" y1="400.62" y2="458.446" gradientUnits="userSpaceOnUse"><stop offset="0" style="stop-color:#4c3e8e"/><stop offset=".258" style="stop-color:#573f8e"/><stop offset=".608" style="stop-color:#88408d"/><stop offset="1" style="stop-color:#da4d75"/></linearGradient><path d="M277.62 427.24v5.56h-13.76v-5.56h13.76z" style="fill:url(#j)"/><linearGradient id="k" x1="121.376" x2="416.581" y1="395.329" y2="453.531" gradientUnits="userSpaceOnUse"><stop offset="0" style="stop-color:#4c3e8e"/><stop offset=".258" style="stop-color:#573f8e"/><stop offset=".608" style="stop-color:#88408d"/><stop offset="1" style="stop-color:#da4d75"/></linearGradient><path d="M312.11 416.8v30.21h-10.47v-5.9c-1.02 1.14-1.96 1.87-2.81 2.17-.85.3-1.91.45-3.17.45-1.83 0-3.35-.33-4.55-1-1.2-.66-2.01-1.52-2.42-2.58-.41-1.06-.62-2.67-.62-4.85v-11.66c0-1.79.16-3.13.47-4.02.31-.88 1.06-1.65 2.24-2.31 1.18-.66 2.59-.99 4.21-.99 1.31 0 2.52.23 3.63.68 1.1.45 2.12 1.14 3.03 2.06l.18-2.26h10.28zm-10.47 7.19c0-1.17-.12-1.96-.35-2.37-.23-.41-.65-.62-1.26-.62-.59 0-.99.18-1.19.54-.21.36-.31 1.18-.31 2.45v11.78c0 1.42.1 2.32.31 2.7.21.38.63.57 1.27.57.6 0 1.01-.2 1.22-.59.21-.39.31-1.25.31-2.56v-11.9z" style="fill:url(#k)"/><linearGradient id="l" x1="122.495" x2="417.66" y1="387.632" y2="445.826" gradientUnits="userSpaceOnUse"><stop offset="0" style="stop-color:#4c3e8e"/><stop offset=".258" style="stop-color:#573f8e"/><stop offset=".608" style="stop-color:#88408d"/><stop offset="1" style="stop-color:#da4d75"/></linearGradient><path d="M347.79 416.8v26.44h-10.65l.18-2.2c-.73.89-1.62 1.56-2.68 2.01-1.06.45-2.29.67-3.67.67-1.57 0-2.88-.21-3.91-.64-1.04-.43-1.8-.99-2.29-1.69s-.8-1.44-.92-2.2c-.12-.76-.18-2.28-.18-4.55V416.8h10.47v17.99c0 2.06.08 3.28.25 3.67.16.39.61.58 1.33.58.78 0 1.24-.2 1.39-.6.15-.4.22-1.68.22-3.85V416.8h10.46z" style="fill:url(#l)"/><linearGradient id="m" x1="124.476" x2="418.341" y1="381.389" y2="439.327" gradientUnits="userSpaceOnUse"><stop offset="0" style="stop-color:#4c3e8e"/><stop offset=".258" style="stop-color:#573f8e"/><stop offset=".608" style="stop-color:#88408d"/><stop offset="1" style="stop-color:#da4d75"/></linearGradient><path d="M383.21 430.49h-13.55v5.72c0 1.2.11 1.97.34 2.31.22.35.66.52 1.3.52.79 0 1.33-.23 1.59-.69.27-.46.4-1.35.4-2.66v-3.49h9.92v1.95c0 1.63-.13 2.89-.4 3.77-.27.88-.89 1.81-1.88 2.81-.98 1-2.23 1.74-3.74 2.24-1.51.5-3.41.75-5.69.75-2.21 0-4.16-.25-5.85-.74-1.69-.49-3.01-1.17-3.95-2.02-.94-.86-1.59-1.8-1.96-2.83-.36-1.03-.54-2.53-.54-4.49v-7.71c0-2.31.41-4.14 1.22-5.47.81-1.34 2.14-2.36 3.99-3.07s3.97-1.07 6.37-1.07c2.94 0 5.36.43 7.27 1.29 1.91.86 3.25 1.99 4.02 3.41.77 1.41 1.15 3.4 1.15 5.97v3.5zm-10.49-4.31v-1.93c0-1.37-.1-2.25-.28-2.65-.19-.4-.58-.6-1.17-.6-.73 0-1.17.17-1.35.51-.17.34-.26 1.25-.26 2.74v1.93h3.06z" style="fill:url(#m)"/><linearGradient id="n" x1="125.604" x2="419.275" y1="375.104" y2="433.003" gradientUnits="userSpaceOnUse"><stop offset="0" style="stop-color:#4c3e8e"/><stop offset=".258" style="stop-color:#573f8e"/><stop offset=".608" style="stop-color:#88408d"/><stop offset="1" style="stop-color:#da4d75"/></linearGradient><path d="m405.06 416.8-.41 3.48c1.52-2.49 3.72-3.81 6.61-3.96v9.31c-1.92 0-3.32.2-4.22.6-.9.4-1.45.95-1.66 1.66-.21.71-.31 2.35-.31 4.91v10.44H394.6V416.8h10.46z" style="fill:url(#n)"/><linearGradient id="o" x1="124.675" x2="419.895" y1="370.957" y2="429.162" gradientUnits="userSpaceOnUse"><stop offset="0" style="stop-color:#4c3e8e"/><stop offset=".258" style="stop-color:#573f8e"/><stop offset=".608" style="stop-color:#88408d"/><stop offset="1" style="stop-color:#da4d75"/></linearGradient><path d="m444.41 416.8-2.99 19.13c-.47 3.03-.87 5.09-1.19 6.2-.32 1.1-.85 2.01-1.59 2.73-.74.72-1.77 1.25-3.1 1.58-1.32.34-3.43.51-6.33.51h-6.35v-4.23c1.63 0 2.67-.06 3.14-.19.47-.13.7-.41.7-.85 0-.21-.22-1.14-.65-2.77l-5.73-22.12h9.5l3.44 17.86 1.68-17.86h9.47z" style="fill:url(#o)"/></svg>