<?xml version="1.0" encoding="utf-8"?>
<!-- Generator: Adobe Illustrator 27.0.0, SVG Export Plug-In . SVG Version: 6.00 Build 0)  -->
<svg version="1.1" id="图层_1" xmlns="http://www.w3.org/2000/svg" xmlns:xlink="http://www.w3.org/1999/xlink" x="0px" y="0px"
	 viewBox="0 0 40 40" style="enable-background:new 0 0 40 40;" xml:space="preserve">
<style type="text/css">
	.st0{fill:url(#SVGID_1_);}
	.st1{fill:url(#SVGID_00000177474700164500946330000010661710303779101577_);}
	.st2{fill:url(#SVGID_00000095322585255958437040000016301606676728758663_);}
	.st3{fill:url(#SVGID_00000011021642770463099800000005785864696158071977_);}
	.st4{fill:url(#SVGID_00000164513552620680875580000017820174116609590428_);}
</style>
<linearGradient id="SVGID_1_" gradientUnits="userSpaceOnUse" x1="15.31" y1="23.755" x2="24.08" y2="23.755" gradientTransform="matrix(1 0 0 -1 0 42)">
	<stop  offset="0" style="stop-color:#4B3E8D"/>
	<stop  offset="0.2581" style="stop-color:#563E8D"/>
	<stop  offset="0.6075" style="stop-color:#87408C"/>
	<stop  offset="1" style="stop-color:#D94C75"/>
</linearGradient>
<path class="st0" d="M22.28,21.18h-5.17c-0.99,0-1.8-0.81-1.8-1.8v-2.27c0-0.99,0.81-1.8,1.8-1.8h5.17c0.99,0,1.8,0.81,1.8,1.8v2.27
	C24.08,20.37,23.28,21.18,22.28,21.18z"/>
<linearGradient id="SVGID_00000165921403653911141150000012971307958717251461_" gradientUnits="userSpaceOnUse" x1="15.31" y1="23.755" x2="24.08" y2="23.755" gradientTransform="matrix(1 0 0 -1 0 42)">
	<stop  offset="0" style="stop-color:#4B3E8D"/>
	<stop  offset="0.2581" style="stop-color:#563E8D"/>
	<stop  offset="0.6075" style="stop-color:#87408C"/>
	<stop  offset="1" style="stop-color:#D94C75"/>
</linearGradient>
<path style="fill:url(#SVGID_00000165921403653911141150000012971307958717251461_);" d="M22.28,21.18h-5.17
	c-0.99,0-1.8-0.81-1.8-1.8v-2.27c0-0.99,0.81-1.8,1.8-1.8h5.17c0.99,0,1.8,0.81,1.8,1.8v2.27C24.08,20.37,23.28,21.18,22.28,21.18z"
	/>
<g>
	
		<linearGradient id="SVGID_00000106136495836570457490000011537410039625259414_" gradientUnits="userSpaceOnUse" x1="7.06" y1="23.56" x2="32.34" y2="23.56" gradientTransform="matrix(1 0 0 -1 0 42)">
		<stop  offset="0" style="stop-color:#4B3E8D"/>
		<stop  offset="0.2581" style="stop-color:#563E8D"/>
		<stop  offset="0.6075" style="stop-color:#87408C"/>
		<stop  offset="1" style="stop-color:#D94C75"/>
	</linearGradient>
	<path style="fill:url(#SVGID_00000106136495836570457490000011537410039625259414_);" d="M22.67,25.39
		c-0.32-0.41-0.82-0.65-1.34-0.65H15.6c-0.06,0-0.12,0-0.18,0c-1.88-0.09-3.33-1.69-3.33-3.57v-5.2c0-1.89,1.47-3.49,3.35-3.57
		c0.05,0,0.11,0,0.16,0h7.99c1.22,0,2.3,0.57,3,1.45c0.27,0.34,0.67,0.54,1.11,0.54h3.73c0.5,0,0.91-0.41,0.91-0.91l0,0v-0.34h-0.01
		c-0.18-2.74-2.46-4.92-5.24-4.92H12.32c-2.89,0-5.26,2.37-5.26,5.26v0.11v0.13V17v5.33v0.7v0.38v0.45h0.02
		c0.23,2.69,2.49,4.8,5.24,4.8h12.59c0.15,0,0.23-0.17,0.14-0.29L22.67,25.39z"/>
	
		<linearGradient id="SVGID_00000031910106436182328370000011907248556840609961_" gradientUnits="userSpaceOnUse" x1="27.1929" y1="17.9587" x2="32.3384" y2="17.9587" gradientTransform="matrix(1 0 0 -1 0 42)">
		<stop  offset="0" style="stop-color:#4B3E8D"/>
		<stop  offset="0.2581" style="stop-color:#563E8D"/>
		<stop  offset="0.6075" style="stop-color:#87408C"/>
		<stop  offset="1" style="stop-color:#D94C75"/>
	</linearGradient>
	<path style="fill:url(#SVGID_00000031910106436182328370000011907248556840609961_);" d="M32.32,22.11
		c-0.01-0.43-0.37-0.77-0.8-0.77h-3.99c-0.39,0-0.43,0.68-0.18,0.98l3.5,4.34c0.09,0.11,0.26,0.11,0.35,0
		c0.71-0.9,1.13-2.03,1.13-3.26v-0.7L32.32,22.11z"/>
</g>
<linearGradient id="SVGID_00000041257767347265645260000014135613198776809864_" gradientUnits="userSpaceOnUse" x1="-155.9132" y1="78.2851" x2="-149.5916" y2="83.3977" gradientTransform="matrix(0.6842 -0.5649 -0.6366 -0.7712 182.6175 1.9155)">
	<stop  offset="0" style="stop-color:#4B3E8D"/>
	<stop  offset="0.2581" style="stop-color:#563E8D"/>
	<stop  offset="0.6075" style="stop-color:#87408C"/>
	<stop  offset="1" style="stop-color:#D94C75"/>
</linearGradient>
<path style="fill:url(#SVGID_00000041257767347265645260000014135613198776809864_);" d="M31.59,28.69l-1.2,0.99
	c-1.06,0.87-2.62,0.72-3.49-0.33l-5.21-6.31l1.2-0.99c1.06-0.87,2.62-0.72,3.49,0.33L31.59,28.69z"/>
</svg>
